TITLE ""
FILE "2Q_j_1621-1634.mp3" MP3
  TRACK 01 AUDIO
    TITLE "2Q_j_1621-1634_01"
    INDEX 01 00:00:00
  TRACK 02 AUDIO
    TITLE "2Q_j_1621-1634_02"
    INDEX 01 00:00:22
  TRACK 03 AUDIO
    TITLE "2Q_j_1621-1634_03"
    INDEX 01 00:01:37
  TRACK 04 AUDIO
    TITLE "2Q_j_1621-1634_04"
    INDEX 01 00:02:09
  TRACK 05 AUDIO
    TITLE "2Q_j_1621-1634_05"
    INDEX 01 00:03:38
  TRACK 06 AUDIO
    TITLE "2Q_j_1621-1634_06"
    INDEX 01 00:04:10
  TRACK 07 AUDIO
    TITLE "2Q_j_1621-1634_07"
    INDEX 01 00:07:16
  TRACK 08 AUDIO
    TITLE "2Q_j_1621-1634_08"
    INDEX 01 00:07:67
  TRACK 09 AUDIO
    TITLE "2Q_j_1621-1634_09"
    INDEX 01 00:09:41
  TRACK 10 AUDIO
    TITLE "2Q_j_1621-1634_10"
    INDEX 01 00:10:11
  TRACK 11 AUDIO
    TITLE "2Q_j_1621-1634_11"
    INDEX 01 00:12:06
  TRACK 12 AUDIO
    TITLE "2Q_j_1621-1634_12"
    INDEX 01 00:12:51
  TRACK 13 AUDIO
    TITLE "2Q_j_1621-1634_13"
    INDEX 01 00:16:01
  TRACK 14 AUDIO
    TITLE "2Q_j_1621-1634_14"
    INDEX 01 00:16:50
  TRACK 15 AUDIO
    TITLE "2Q_j_1621-1634_15"
    INDEX 01 00:18:20
  TRACK 16 AUDIO
    TITLE "2Q_j_1621-1634_16"
    INDEX 01 00:18:67
  TRACK 17 AUDIO
    TITLE "2Q_j_1621-1634_17"
    INDEX 01 00:22:35
  TRACK 18 AUDIO
    TITLE "2Q_j_1621-1634_18"
    INDEX 01 00:23:05
  TRACK 19 AUDIO
    TITLE "2Q_j_1621-1634_19"
    INDEX 01 00:26:68
  TRACK 20 AUDIO
    TITLE "2Q_j_1621-1634_20"
    INDEX 01 00:27:40
  TRACK 21 AUDIO
    TITLE "2Q_j_1621-1634_21"
    INDEX 01 00:28:52
  TRACK 22 AUDIO
    TITLE "2Q_j_1621-1634_22"
    INDEX 01 00:29:24
  TRACK 23 AUDIO
    TITLE "2Q_j_1621-1634_23"
    INDEX 01 00:32:10
  TRACK 24 AUDIO
    TITLE "2Q_j_1621-1634_24"
    INDEX 01 00:32:55
  TRACK 25 AUDIO
    TITLE "2Q_j_1621-1634_25"
    INDEX 01 00:35:73
  TRACK 26 AUDIO
    TITLE "2Q_j_1621-1634_26"
    INDEX 01 00:36:47
  TRACK 27 AUDIO
    TITLE "2Q_j_1621-1634_27"
    INDEX 01 00:37:62
  TRACK 28 AUDIO
    TITLE "2Q_j_1621-1634_28"
    INDEX 01 00:38:40
  TRACK 29 AUDIO
    TITLE "2Q_j_1621-1634_29"
    INDEX 01 00:42:62
  TRACK 30 AUDIO
    TITLE "2Q_j_1621-1634_30"
    INDEX 01 00:43:32
  TRACK 31 AUDIO
    TITLE "2Q_j_1621-1634_31"
    INDEX 01 00:47:63
  TRACK 32 AUDIO
    TITLE "2Q_j_1621-1634_32"
    INDEX 01 00:48:35
  TRACK 33 AUDIO
    TITLE "2Q_j_1621-1634_33"
    INDEX 01 00:49:70
  TRACK 34 AUDIO
    TITLE "2Q_j_1621-1634_34"
    INDEX 01 00:50:42
  TRACK 35 AUDIO
    TITLE "2Q_j_1621-1634_35"
    INDEX 01 00:52:25
  TRACK 36 AUDIO
    TITLE "2Q_j_1621-1634_36"
    INDEX 01 00:52:70
  TRACK 37 AUDIO
    TITLE "2Q_j_1621-1634_37"
    INDEX 01 00:55:52
  TRACK 38 AUDIO
    TITLE "2Q_j_1621-1634_38"
    INDEX 01 00:56:26
  TRACK 39 AUDIO
    TITLE "2Q_j_1621-1634_39"
    INDEX 01 00:57:46
  TRACK 40 AUDIO
    TITLE "2Q_j_1621-1634_40"
    INDEX 01 00:58:16
  TRACK 41 AUDIO
    TITLE "2Q_j_1621-1634_41"
    INDEX 01 01:01:02
  TRACK 42 AUDIO
    TITLE "2Q_j_1621-1634_42"
    INDEX 01 01:01:47
  TRACK 43 AUDIO
    TITLE "2Q_j_1621-1634_43"
    INDEX 01 01:04:36
  TRACK 44 AUDIO
    TITLE "2Q_j_1621-1634_44"
    INDEX 01 01:05:16
  TRACK 45 AUDIO
    TITLE "2Q_j_1621-1634_45"
    INDEX 01 01:06:48
  TRACK 46 AUDIO
    TITLE "2Q_j_1621-1634_46"
    INDEX 01 01:07:18
  TRACK 47 AUDIO
    TITLE "2Q_j_1621-1634_47"
    INDEX 01 01:08:61
  TRACK 48 AUDIO
    TITLE "2Q_j_1621-1634_48"
    INDEX 01 01:09:31
  TRACK 49 AUDIO
    TITLE "2Q_j_1621-1634_49"
    INDEX 01 01:13:43
  TRACK 50 AUDIO
    TITLE "2Q_j_1621-1634_50"
    INDEX 01 01:14:13
  TRACK 51 AUDIO
    TITLE "2Q_j_1621-1634_51"
    INDEX 01 01:15:32
  TRACK 52 AUDIO
    TITLE "2Q_j_1621-1634_52"
    INDEX 01 01:16:04
  TRACK 53 AUDIO
    TITLE "2Q_j_1621-1634_53"
    INDEX 01 01:18:34
  TRACK 54 AUDIO
    TITLE "2Q_j_1621-1634_54"
    INDEX 01 01:19:04
  TRACK 55 AUDIO
    TITLE "2Q_j_1621-1634_55"
    INDEX 01 01:22:43
  TRACK 56 AUDIO
    TITLE "2Q_j_1621-1634_56"
    INDEX 01 01:23:23
  TRACK 57 AUDIO
    TITLE "2Q_j_1621-1634_57"
    INDEX 01 01:24:72
  TRACK 58 AUDIO
    TITLE "2Q_j_1621-1634_58"
    INDEX 01 01:25:42
  TRACK 59 AUDIO
    TITLE "2Q_j_1621-1634_59"
    INDEX 01 01:27:25
  TRACK 60 AUDIO
    TITLE "2Q_j_1621-1634_60"
    INDEX 01 01:27:72
  TRACK 61 AUDIO
    TITLE "2Q_j_1621-1634_61"
    INDEX 01 01:31:25
  TRACK 62 AUDIO
    TITLE "2Q_j_1621-1634_62"
    INDEX 01 01:31:72
  TRACK 63 AUDIO
    TITLE "2Q_j_1621-1634_63"
    INDEX 01 01:33:00
  TRACK 64 AUDIO
    TITLE "2Q_j_1621-1634_64"
    INDEX 01 01:33:55
  TRACK 65 AUDIO
    TITLE "2Q_j_1621-1634_65"
    INDEX 01 01:35:21
  TRACK 66 AUDIO
    TITLE "2Q_j_1621-1634_66"
    INDEX 01 01:35:66
  TRACK 67 AUDIO
    TITLE "2Q_j_1621-1634_67"
    INDEX 01 01:39:26
  TRACK 68 AUDIO
    TITLE "2Q_j_1621-1634_68"
    INDEX 01 01:39:73
  TRACK 69 AUDIO
    TITLE "2Q_j_1621-1634_69"
    INDEX 01 01:41:04
  TRACK 70 AUDIO
    TITLE "2Q_j_1621-1634_70"
    INDEX 01 01:41:58
  TRACK 71 AUDIO
    TITLE "2Q_j_1621-1634_71"
    INDEX 01 01:44:41
  TRACK 72 AUDIO
    TITLE "2Q_j_1621-1634_72"
    INDEX 01 01:45:11
  TRACK 73 AUDIO
    TITLE "2Q_j_1621-1634_73"
    INDEX 01 01:48:02
  TRACK 74 AUDIO
    TITLE "2Q_j_1621-1634_74"
    INDEX 01 01:48:49
  TRACK 75 AUDIO
    TITLE "2Q_j_1621-1634_75"
    INDEX 01 01:50:18
  TRACK 76 AUDIO
    TITLE "2Q_j_1621-1634_76"
    INDEX 01 01:50:63
  TRACK 77 AUDIO
    TITLE "2Q_j_1621-1634_77"
    INDEX 01 01:54:57
  TRACK 78 AUDIO
    TITLE "2Q_j_1621-1634_78"
    INDEX 01 01:55:27
  TRACK 79 AUDIO
    TITLE "2Q_j_1621-1634_79"
    INDEX 01 01:59:13
  TRACK 80 AUDIO
    TITLE "2Q_j_1621-1634_80"
    INDEX 01 01:59:58
  TRACK 81 AUDIO
    TITLE "2Q_j_1621-1634_81"
    INDEX 01 02:01:24
  TRACK 82 AUDIO
    TITLE "2Q_j_1621-1634_82"
    INDEX 01 02:01:71
  TRACK 83 AUDIO
    TITLE "2Q_j_1621-1634_83"
    INDEX 01 02:04:30
  TRACK 84 AUDIO
    TITLE "2Q_j_1621-1634_84"
    INDEX 01 02:05:02
  TRACK 85 AUDIO
    TITLE "2Q_j_1621-1634_85"
    INDEX 01 02:08:42
